<svg width="11" height="11" viewBox="0 0 11 11" fill="none" xmlns="http://www.w3.org/2000/svg">
<path d="M2.29167 5.49999H2.29625H2.29167ZM5.5 5.49999H5.50458H5.5ZM8.70833 5.49999H8.71291H8.70833ZM2.75 5.49999C2.75 5.62155 2.70171 5.73813 2.61576 5.82408C2.5298 5.91003 2.41322 5.95832 2.29167 5.95832C2.17011 5.95832 2.05353 5.91003 1.96757 5.82408C1.88162 5.73813 1.83333 5.62155 1.83333 5.49999C1.83333 5.37843 1.88162 5.26185 1.96757 5.1759C2.05353 5.08995 2.17011 5.04166 2.29167 5.04166C2.41322 5.04166 2.5298 5.08995 2.61576 5.1759C2.70171 5.26185 2.75 5.37843 2.75 5.49999V5.49999ZM5.95833 5.49999C5.95833 5.62155 5.91004 5.73813 5.82409 5.82408C5.73813 5.91003 5.62156 5.95832 5.5 5.95832C5.37844 5.95832 5.26186 5.91003 5.17591 5.82408C5.08995 5.73813 5.04167 5.62155 5.04167 5.49999C5.04167 5.37843 5.08995 5.26185 5.17591 5.1759C5.26186 5.08995 5.37844 5.04166 5.5 5.04166C5.62156 5.04166 5.73813 5.08995 5.82409 5.1759C5.91004 5.26185 5.95833 5.37843 5.95833 5.49999V5.49999ZM9.16666 5.49999C9.16666 5.62155 9.11838 5.73813 9.03242 5.82408C8.94647 5.91003 8.82989 5.95832 8.70833 5.95832C8.58677 5.95832 8.47019 5.91003 8.38424 5.82408C8.29829 5.73813 8.25 5.62155 8.25 5.49999C8.25 5.37843 8.29829 5.26185 8.38424 5.1759C8.47019 5.08995 8.58677 5.04166 8.70833 5.04166C8.82989 5.04166 8.94647 5.08995 9.03242 5.1759C9.11838 5.26185 9.16666 5.37843 9.16666 5.49999V5.49999Z" stroke="#333333" stroke-linecap="round" stroke-linejoin="round"/>
</svg>
